# xmcd
#
# Track frame offsets:
#	150
#	19866
#	33950
#	52776
#	63886
#	83944
#	93986
#	113002
#	131740
#	166050
#	180523
#	198206
#	214863
#	231241
#	246084
#	261649
#	286312
#	301271
#
# Disc length: 4235 seconds
#
# Revision: 0
# Processed by: cddbd v1.5PL3 Copyright (c) Steve Scherf et al.
# Submitted via: dBpowerAMP V4.0
#
DISCID=ef108912
DTITLE=Lewis and Royal - Ampersands
DYEAR=1900
DGENRE=Country
TTITLE0=Drought Song
TTITLE1=Listen to the Sound
TTITLE2=God Forgive Me When I Whine
TTITLE3=Tralee Goal
TTITLE4=For Love To Grow
TTITLE5=Puttin' On The Dog
TTITLE6=April 23, 1973
TTITLE7=Love Me
TTITLE8=And the Band Played Waltzing Matilda
TTITLE9=The Voyage
TTITLE10=River of Many Roses
TTITLE11=On Her Own
TTITLE12=Litle Johnny
TTITLE13=Where Do Cowboys Go When They Die(Reincarnation)
TTITLE14=Dear Mother
TTITLE15=The Emigrant's Letter
TTITLE16=Danny Boy
TTITLE17=The Outlaw
EXTD=
EXTT0=
EXTT1=
EXTT2=
EXTT3=
EXTT4=
EXTT5=
EXTT6=
EXTT7=
EXTT8=
EXTT9=
EXTT10=
EXTT11=
EXTT12=
EXTT13=
EXTT14=
EXTT15=
EXTT16=
EXTT17=
PLAYORDER=
